# xmcd CD database file generated by OrangeCD 5.2
#
# Track frame offsets:
#	150
#	14550
#	26061
#	36807
#	50611
#	63575
#	78829
#	91969
#	105824
#	118439
#	132232
#	143859
#	156557
#	168699
#	181820
#	193906
#	205768
#	218767
#	232191
#	246049
#	260333
#	269531
#	281037
#	294787
#	305858
#	317148
#
# Disc length: 4420 seconds
#
# Revision: 0
# Processed by: cddbd v1.5.1PL0 Copyright (c) Steve Scherf et al.
# Submitted via: OrangeCD 5.2
#
DISCID=8e11421a
DTITLE=Various Artist - Doo Wop Classics  The Glory Of Love
DYEAR=2005
DGENRE=Doo Wop
TTITLE0=The Five Keys - The Glory Of Love
TTITLE1=The Clovers - Fool Fool Fool
TTITLE2=The Larks - My Reverie
TTITLE3=The Mello-Moods - How Could You
TTITLE4=The Robins - Rockin' My Blues Away
TTITLE5=The Velvets - I
TTITLE6=The Ravens - Count Every Star
TTITLE7=The Jubalaires With Andy Kirk and His Clouds Of Joy - I Know
TTITLE8=The Hollywood Flames - Tabarin
TTITLE9=The Orioles - Crying In The Chapel
TTITLE10=The Swallows - It Ain't The Meat
TTITLE11=The Royals - Moon Rise
TTITLE12=Billy Ward and The Dominoes Featuring Jackie Wilson - Rag To Riches
TTITLE13=The Five Red Caps - Boogie Woogie On A Saturday Night
TTITLE14=Savannah Churchill and The Striders - In Spite Of Everything You Do
TTITLE15=The Heartbreakers - Rockin' Daddy-O
TTITLE16=The Cardinals - Wheel Of Fortune
TTITLE17=The Orioles - It's To Soon To Know
TTITLE18=The Clovers - Don't You Know I Love You
TTITLE19=The Cardinals - Shouldn't I Know
TTITLE20=The Du Droppers - Bambalam
TTITLE21=The Swallows - Beside You
TTITLE22=Savannah Churchill and The Striders - My Affair
TTITLE23=The Clovers - One Mint Julep
TTITLE24=Billy Ward and The Dominoes - Sixty Minute Man
TTITLE25=The Robins - All Night Baby
EXTD=
EXTT0=
EXTT1=
EXTT2=
EXTT3=
EXTT4=
EXTT5=
EXTT6=
EXTT7=
EXTT8=
EXTT9=
EXTT10=
EXTT11=
EXTT12=
EXTT13=
EXTT14=
EXTT15=
EXTT16=
EXTT17=
EXTT18=
EXTT19=
EXTT20=
EXTT21=
EXTT22=
EXTT23=
EXTT24=
EXTT25=
PLAYORDER=
